<?xml version="1.0" encoding="UTF-8"?><svg id="_レイヤー_2" xmlns="http://www.w3.org/2000/svg" viewBox="0 0 103.01 18.59"><defs><style>.cls-1{fill:#231815;}.cls-1,.cls-2,.cls-3{stroke-width:0px;}.cls-2{fill:#94003a;}.cls-3{fill:#fff;}</style></defs><g id="_レイヤー_1-2"><path class="cls-2" d="M102.42,3.58c1.2,2.08.49,4.75-1.6,5.96-2.08,1.2-4.75.49-5.95-1.6-1.2-2.09-.49-4.75,1.6-5.96,2.09-1.2,4.75-.49,5.96,1.6Z"/><path class="cls-1" d="M27.3,8.12l-1.79-3.35v2.98c0,.07.02.13.05.17.03.04.09.07.18.09v.11h-1.42v-.11c.09-.02.15-.05.18-.09.03-.04.05-.09.05-.17V3.64c0-.07-.02-.12-.05-.16-.03-.04-.09-.07-.18-.09v-.11h1.87v.11c-.11.03-.17.09-.17.2,0,.05.02.1.05.16l1.32,2.5,1.34-2.46c.06-.11.09-.19.09-.24,0-.1-.06-.15-.18-.16v-.11h1.83v.11c-.09.02-.15.05-.18.09-.03.04-.05.09-.05.16v4.11c0,.07.02.13.05.17.03.04.09.07.18.09v.11h-1.51v-.11c.08-.02.14-.05.18-.09.03-.04.05-.09.05-.17v-2.98l-1.88,3.35Z"/><path class="cls-1" d="M40.7,6.88h-2.2l-.33.69c-.04.09-.07.17-.07.22,0,.11.08.18.24.22v.11h-1.6v-.11c.1-.02.17-.05.22-.1.05-.05.11-.14.17-.28l1.78-3.73c.06-.12.09-.21.09-.28,0-.11-.07-.19-.21-.24v-.11h1.72v.11c-.14.04-.21.11-.21.21,0,.07.02.15.07.23l1.85,3.74c.08.16.15.27.21.32.06.06.14.1.24.12v.11h-1.79v-.11c.16-.02.23-.1.23-.22,0-.05-.02-.12-.07-.22l-.33-.69ZM40.4,6.21l-.78-1.72-.8,1.72h1.58Z"/><path class="cls-1" d="M50.17,6.13v1.61c0,.07.02.13.05.17.03.04.09.07.18.09v.11h-1.51v-.11c.09-.02.15-.05.18-.09.03-.04.05-.09.05-.17V3.64c0-.07-.02-.13-.05-.17-.03-.04-.09-.07-.18-.09v-.11h3.03c.37,0,.66.02.88.06.22.04.41.12.57.22.19.12.33.29.42.5.09.21.13.42.13.65,0,.79-.44,1.25-1.32,1.38l.94,1.35c.16.24.29.39.36.45.08.07.17.11.28.11v.11h-1.75v-.11c.12-.02.18-.06.18-.13,0-.04-.06-.15-.17-.31l-.98-1.43h-1.3ZM50.17,5.34h1.63c.24,0,.41,0,.51-.02.1-.02.19-.05.27-.09.18-.1.27-.27.27-.53s-.09-.43-.27-.53c-.09-.05-.18-.08-.27-.09-.1-.01-.27-.02-.51-.02h-1.63v1.27Z"/><path class="cls-1" d="M65.44,3.64v2.72c0,.51-.09.9-.28,1.15-.34.46-1.05.69-2.11.69-.77,0-1.36-.12-1.77-.37-.24-.14-.4-.34-.5-.59-.09-.25-.13-.54-.13-.88v-2.72c0-.07-.02-.13-.05-.17-.03-.04-.09-.07-.18-.09v-.11h1.51v.11c-.08.02-.14.05-.18.09-.03.04-.05.09-.05.17v2.42c0,.28.02.49.05.62.03.13.09.25.17.34.23.24.61.36,1.16.36s.94-.12,1.17-.36c.08-.09.14-.2.17-.34.03-.13.05-.34.05-.62v-2.42c0-.07-.02-.13-.05-.17-.03-.04-.09-.07-.18-.09v-.11h1.43v.11c-.09.02-.15.05-.18.09-.03.04-.05.09-.05.17Z"/><path class="cls-1" d="M76.57,6.37h-1.21c-.07,0-.13.02-.17.05-.04.03-.07.09-.09.18h-.11v-1.13h.11c.02.09.05.15.09.18.04.03.09.05.17.05h2.31v.11c-.08.02-.14.05-.18.09-.03.04-.05.09-.05.17v1c0,.07.02.13.05.17.03.04.09.07.18.09v.09c-.92.53-1.81.79-2.68.79-.78,0-1.42-.19-1.92-.56-.62-.47-.93-1.12-.93-1.95,0-.78.28-1.39.83-1.85.53-.43,1.22-.65,2.09-.65.28,0,.54.03.78.08.24.05.52.14.84.26.16.06.28.09.34.09.05,0,.11-.03.17-.08l.1.05-.57,1.16-.1-.05c0-.08-.01-.13-.03-.17-.02-.03-.06-.08-.13-.13-.14-.11-.36-.2-.63-.28-.28-.08-.54-.12-.79-.12-.51,0-.93.14-1.26.43-.38.32-.56.75-.56,1.27s.18.92.55,1.24c.34.29.78.43,1.33.43.27,0,.53-.03.79-.09.26-.06.49-.15.68-.25v-.66Z"/><path class="cls-1" d="M86.97,3.19c.84,0,1.51.23,2.01.69.52.48.78,1.1.78,1.85,0,.46-.13.9-.38,1.3-.49.79-1.29,1.18-2.41,1.18-.84,0-1.5-.23-2-.69-.27-.24-.47-.54-.6-.88-.12-.3-.18-.62-.18-.95,0-.48.12-.93.37-1.33.48-.77,1.28-1.16,2.4-1.18ZM86.97,4.01c-.46,0-.84.14-1.15.41-.36.33-.55.75-.55,1.27s.18.95.55,1.27c.31.27.69.41,1.16.41s.85-.14,1.16-.41c.18-.16.32-.36.42-.6.08-.21.13-.43.13-.65,0-.55-.18-.98-.55-1.29-.31-.27-.7-.4-1.16-.41Z"/><path class="cls-3" d="M96.57,7.75V3.64c0-.07-.02-.12-.05-.16-.03-.04-.09-.07-.18-.09v-.11h1.51v.11c-.09.02-.15.05-.18.09-.03.04-.05.09-.05.16v4.11c0,.07.02.13.05.17.03.04.09.07.18.09v.11h-1.51v-.11c.08-.02.14-.05.18-.09.03-.04.05-.09.05-.17Z"/><path class="cls-3" d="M99.82,7.75V3.64c0-.07-.02-.12-.05-.16-.03-.04-.09-.07-.18-.09v-.11h1.51v.11c-.08.02-.14.05-.18.09-.03.04-.05.09-.05.16v4.11c0,.07.02.13.05.17.03.04.09.07.18.09v.11h-1.51v-.11c.09-.02.15-.05.18-.09.03-.04.05-.09.05-.17Z"/><path class="cls-2" d="M20.24,12.05c1.2,2.09.49,4.75-1.6,5.96-2.08,1.2-4.75.49-5.96-1.6-1.21-2.08-.49-4.75,1.6-5.96,2.09-1.2,4.75-.49,5.96,1.6Z"/><path class="cls-2" d="M12.54,2.14c1.18,2.05.48,4.67-1.57,5.86-2.05,1.19-4.67.48-5.86-1.57-1.18-2.05-.48-4.67,1.57-5.85,2.05-1.19,4.67-.48,5.86,1.57Z"/><path class="cls-2" d="M1.68,10.08c-.93,0-1.68-.75-1.68-1.69s.76-1.69,1.68-1.69,1.69.75,1.69,1.69-.75,1.69-1.69,1.69Z"/><path class="cls-1" d="M17.54,6.82c-.93,0-1.69-.75-1.69-1.69s.75-1.69,1.69-1.69,1.69.76,1.69,1.69-.75,1.69-1.69,1.69Z"/><path class="cls-1" d="M6.86,17.12c-1.34.78-3.06.32-3.84-1.03-.78-1.34-.32-3.06,1.03-3.84,1.34-.78,3.06-.31,3.84,1.03.77,1.34.31,3.06-1.03,3.84Z"/></g></svg>