<?xml version="1.0" encoding="UTF-8"?>
<svg id="_レイヤー_2" xmlns="http://www.w3.org/2000/svg" version="1.1" viewBox="0 0 122 34">
  <!-- Generator: Adobe Illustrator 29.0.1, SVG Export Plug-In . SVG Version: 2.1.0 Build 192)  -->
  <defs>
    <style>
      .st0 {
        fill: #b0d696;
      }

      .st1 {
        fill: #f49f00;
      }

      .st2 {
        fill: #ae5154;
      }

      .st3 {
        fill: #e73b0c;
      }

      .st4 {
        fill: #e85582;
      }

      .st5 {
        fill: #b28c1b;
      }

      .st6 {
        fill: #ae4c30;
      }

      .st7 {
        fill: #c35d1b;
      }

      .st8 {
        fill: #e95034;
      }
    </style>
  </defs>
  <g id="objects">
    <path class="st4" d="M25,0h0M25,0h0M25,0c-.2,0-.4,0-.6,0,.2,0,.4,0,.6,0M24.4,0h0M25.7,0h0M24.4,0h0M25.7,0h0M25.7,0c.2,0,.4,0,.6.2,0,0,0,0,0,0-.2,0-.4-.1-.7-.2M23.7.3c-.5.2-.8.4-1.2.8.3-.3.7-.6,1.2-.8M27.6,1c.3.3.6.7.8,1.1-.2-.4-.4-.8-.8-1.1M21.8,2.2s0,0,0,.1h0s0,0,0-.1M28.4,2.3c.3.7.3,1.6,0,2.3l-3.3,9,3.8,10.1c.5,1.4,1.9,2.3,3.3,2.3s.8,0,1.2-.2c1.8-.7,2.8-2.6,2.1-4.5L28.4,2.3Z"/>
    <path class="st0" d="M10.7,0h0M10.7,0h0M10.7,0c-.2,0-.4,0-.6,0,.2,0,.4,0,.6,0M11.3,0h0M11.3,0h0M11.3,0c.2,0,.4,0,.6.2,0,0,0,0,.1,0-.2,0-.5-.2-.7-.2M10,0h0M9.3.2c-.5.2-.9.4-1.2.8.3-.3.8-.6,1.2-.8M13.2,1c.3.3.6.7.8,1.1-.2-.4-.4-.8-.8-1.1M7.4,2.2s0,0,0,.1h0s0-.1,0-.1M14,2.3c.3.7.3,1.6,0,2.3l-3.3,9,3.8,10.1c.5,1.4,1.9,2.3,3.3,2.3h0c-.4,0-.8,0-1.1-.2-1.9-.7-2.8-2.6-2.1-4.5l3.3-8.8-3.8-10.3h0Z"/>
    <path class="st8" d="M10.7,0h0M10.7,0h0M10.7,0c.2,0,.4,0,.6,0-.2,0-.4,0-.6,0M11.3,0h0M11.3,0h0M10.1,0h0M10,0c-.2,0-.5.1-.7.2,0,0,0,0,.1,0,.2,0,.4-.1.6-.2M12,.2c.5.2.9.4,1.2.8-.3-.3-.8-.6-1.2-.8M8.1,1c-.3.3-.6.7-.8,1.1.2-.4.4-.8.8-1.1M14,2.2s0,0,0,.1h0s0,0,0-.1M7.3,2.3L.2,21.4c-.7,1.8.3,3.8,2.1,4.5.4.1.8.2,1.2.2,1.5,0,2.8-.9,3.3-2.3l3.8-10.1-3.3-9c-.3-.8-.3-1.6,0-2.3"/>
    <path class="st6" d="M10.7,0h0c-.2,0-.4,0-.6,0h0c-.2,0-.4,0-.6.2,0,0,0,0-.1,0-.4.2-.9.4-1.2.8-.3.3-.6.7-.8,1.1,0,0,0,0,0,.1h0c-.3.8-.3,1.6,0,2.4l3.3,9,3.3-9c.3-.8.3-1.6,0-2.3h0s0,0,0-.1c-.2-.4-.4-.8-.8-1.1-.4-.4-.8-.6-1.2-.8,0,0,0,0-.1,0-.2,0-.4-.1-.6-.2h0c-.2,0-.4,0-.6,0h0"/>
    <path class="st1" d="M25,0h0M25,0h0M25.1,0c.2,0,.4,0,.6,0-.2,0-.4,0-.6,0M24.4,0h0M24.4,0h0M25.7,0h0M24.4,0c-.2,0-.5.1-.7.2,0,0,0,0,.1,0,.2,0,.4-.1.6-.2M25.7,0h0M26.3.2c.5.2.9.5,1.3.8-.3-.4-.8-.6-1.3-.8M22.5,1c-.3.3-.6.7-.8,1.2.2-.4.4-.8.8-1.2M28.3,2.2s0,0,0,.1h0s0,0,0-.1M21.7,2.3l-3.8,10.3,3.3,8.8c.7,1.8-.3,3.8-2.1,4.5-.4.1-.8.2-1.1.2h0c1.5,0,2.8-.9,3.3-2.3l3.8-10.1-3.3-9c-.3-.8-.3-1.6,0-2.3"/>
    <path class="st3" d="M25,0h0c-.2,0-.4,0-.6,0h0c-.2,0-.4,0-.6.2,0,0,0,0-.1,0-.4.2-.8.4-1.2.8-.3.3-.6.7-.8,1.2,0,0,0,0,0,.1h0c-.3.8-.3,1.6,0,2.4l3.3,9,3.3-9c.3-.8.3-1.6,0-2.3h0s0-.1,0-.1c-.2-.4-.4-.8-.8-1.1-.4-.4-.8-.6-1.3-.8,0,0,0,0,0,0-.2,0-.4-.1-.6-.2h0c-.2,0-.4,0-.6,0h0"/>
    <path class="st5" d="M17.9,12.6l-3.3,8.8c-.7,1.8.3,3.8,2.1,4.5.4.1.8.2,1.1.2.4,0,.8,0,1.1-.2,1.9-.7,2.8-2.6,2.1-4.5l-3.3-8.8h0Z"/>
    <path class="st0" d="M80.6,0h0M80.6,0h0M80.6,0h0M80.6,0c-.2,0-.4,0-.6,0,.2,0,.4,0,.6,0M81.2,0h0M80,0h0M81.2,0h0M80,0h0M81.2,0c.2,0,.4,0,.6.2,0,0,0,0,0,0-.2,0-.4-.2-.7-.2M79.3.3c-.4.2-.8.4-1.2.8.3-.3.7-.6,1.2-.8M83.2,1c.3.3.6.7.8,1.1-.2-.4-.4-.8-.8-1.1M77.3,2.2s0,0,0,.1h0s0,0,0-.1M84,2.3c.3.7.3,1.6,0,2.3l-3.3,9v.2c2,0,3.5,1.6,3.5,3.5s-.5,2-1.2,2.6l1.4,3.8c.5,1.4,1.9,2.3,3.3,2.3s.8,0,1.2-.2c1.8-.7,2.8-2.6,2.1-4.5l-7.1-19.1h0Z"/>
    <path class="st1" d="M80.6,0h0M80.6,0h0M80.6,0h0M80.6,0c.2,0,.4,0,.6,0-.2,0-.4,0-.6,0M80,0h0M81.2,0h0M80,0h0M81.2,0h0M80,0c-.2,0-.5.1-.7.2,0,0,0,0,.1,0,.2,0,.4-.1.6-.2M81.9.2c.5.2.9.5,1.2.8-.3-.3-.8-.6-1.2-.8M78.1,1c-.3.3-.6.7-.8,1.2.2-.4.4-.8.8-1.2M83.9,2.2s0,0,0,.1h0s0,0,0-.1M77.3,2.3l-7.1,19.1c-.7,1.8.3,3.8,2.1,4.5.4.1.8.2,1.2.2,1.4,0,2.8-.9,3.3-2.3l1.4-3.8c-.7-.6-1.2-1.6-1.2-2.6,0-1.9,1.5-3.4,3.5-3.5v-.2c0,0-3.2-9-3.2-9-.3-.8-.3-1.6,0-2.3"/>
    <path class="st5" d="M80.6,0h0c-.2,0-.4,0-.6,0h0c-.2,0-.4,0-.6.2,0,0,0,0-.1,0-.4.2-.8.4-1.2.8-.3.3-.6.7-.8,1.2,0,0,0,0,0,.1h0c-.3.8-.3,1.6,0,2.4l3.3,9,3.3-9c.3-.8.3-1.6,0-2.3h0s0-.1,0-.1c-.2-.4-.4-.8-.8-1.1-.3-.4-.8-.6-1.2-.8,0,0,0,0,0,0-.2,0-.4-.1-.6-.2h0c-.2,0-.4,0-.6,0h0"/>
    <path class="st0" d="M104.2,0h0ZM104.2,0h0M104.2,0c-.2,0-.4,0-.6,0,.2,0,.4,0,.6,0M104.8,0c.2,0,.4,0,.6.2,0,0,0,0,0,0-.2,0-.4-.1-.7-.2M103.6,0h0M102.9.2h0M102.9.2c-.5.2-.9.4-1.2.8.3-.3.8-.6,1.2-.8M106.8,1c.3.3.6.7.8,1.1-.2-.4-.4-.8-.8-1.1M100.9,2.2s0,0,0,.1h0s0-.1,0-.1M107.6,2.3c.3.7.3,1.6,0,2.3l-3.3,9,3.8,10.1c-.3-.7-.3-1.6,0-2.4l3.3-9s-3.8-10.1-3.8-10.1ZM114.7,23.8h0s0,.1,0,.2c0,0,0-.1,0-.2M108,23.9c.2.5.4.8.8,1.2-.3-.3-.6-.7-.8-1.2M113.8,25.1c-.3.3-.7.6-1.2.8.4-.2.8-.4,1.2-.8M110,25.8c.2,0,.5.2.8.2-.2,0-.4,0-.6-.2,0,0,0,0,0,0M111.9,26h0M111.9,26c-.2,0-.4,0-.6,0,.2,0,.4,0,.6,0M110.8,26h0M110.8,26h0M111.3,26.1h0M111.3,26.1h0"/>
    <path class="st8" d="M104.2,0h0M104.2,0h0M104.2,0c.2,0,.4,0,.6,0-.2,0-.4,0-.6,0M103.6,0h0M103.6,0h0M103.6,0c-.2,0-.4.1-.7.2,0,0,0,0,.1,0,.2,0,.4-.1.6-.2M105.5.2c.5.2.9.5,1.3.8-.3-.4-.8-.6-1.3-.8M102.9.2h0M101.7,1c-.3.3-.6.7-.8,1.1.2-.4.4-.8.8-1.1M107.5,2.2s0,0,0,.1h0s0,0,0-.1M100.9,2.3l-7.1,19.1c-.7,1.8.3,3.8,2.1,4.5.4.1.8.2,1.2.2,1.4,0,2.8-.9,3.3-2.3l3.8-10.1-3.3-9c-.3-.8-.3-1.6,0-2.3"/>
    <path class="st6" d="M104.2,0h0c-.2,0-.4,0-.6,0h0c-.2,0-.4,0-.6.2,0,0,0,0-.1,0h0c-.4.2-.8.4-1.2.8-.3.3-.6.7-.8,1.1,0,0,0,0,0,.1h0c-.3.8-.3,1.6,0,2.4l3.3,9,3.3-9c.3-.8.3-1.6,0-2.3h0s0-.1,0-.1c-.2-.4-.4-.8-.8-1.1-.4-.4-.8-.6-1.3-.8,0,0,0,0,0,0-.2,0-.4-.1-.6-.2-.2,0-.4,0-.6,0h0"/>
    <path class="st4" d="M118.4,0c-1.4,0-2.8.9-3.3,2.3l-3.8,10.1,3.3,9c.3.8.3,1.6,0,2.4l7.1-19.1c.7-1.8-.3-3.8-2.1-4.5-.4-.1-.8-.2-1.2-.2M108,23.8s0,0,0,.1c0,0,0,0,0-.1h0s0,0,0,0ZM114.6,23.9c-.2.4-.4.8-.8,1.1.3-.3.6-.7.8-1.1M108.8,25c.3.3.7.6,1.2.8-.4-.2-.8-.4-1.2-.8M112.7,25.8s0,0-.1,0c-.2,0-.4.1-.6.2.3,0,.5-.1.7-.2M111.9,26h0M110.8,26h0M110.8,26h0M110.8,26c.2,0,.4,0,.6,0-.2,0-.4,0-.6,0M111.3,26.1h0M111.3,26.1h0"/>
    <path class="st2" d="M111.3,12.4l-3.3,9c-.3.8-.3,1.6,0,2.4h0s0,0,0,.1c.2.4.4.8.8,1.2.3.3.8.6,1.2.8,0,0,0,0,0,0,.2,0,.4.1.6.2h0c.2,0,.4,0,.6,0h0c.2,0,.4,0,.6,0h0c.2,0,.4,0,.6-.2,0,0,0,0,.1,0,.4-.2.8-.4,1.2-.8.3-.3.6-.7.8-1.1,0,0,0,0,0-.1h0c.3-.8.3-1.6,0-2.4l-3.3-9h0Z"/>
    <path class="st7" d="M38.9,3.5v19.1c0,1.9,1.6,3.5,3.6,3.5s3.6-1.6,3.6-3.5V3.5c0-1.9-1.6-3.5-3.6-3.5s-3.6,1.6-3.6,3.5"/>
    <path class="st0" d="M57.1,3.5v19.1c0,1.9,1.6,3.5,3.6,3.5s3.6-1.6,3.6-3.5V3.5c0-1.9-1.6-3.5-3.6-3.5s-3.6,1.6-3.6,3.5"/>
    <path class="st1" d="M68.4,0h-16.2c-2,0-3.6,1.6-3.6,3.5s1.6,3.5,3.6,3.5h4.9v-3.5c0-1.9,1.6-3.5,3.6-3.5s3.6,1.6,3.6,3.5v3.5h4.2c2,0,3.6-1.6,3.6-3.5s-1.6-3.5-3.6-3.5"/>
    <path class="st5" d="M60.6,0c-2,0-3.6,1.6-3.6,3.5v3.5h7.1v-3.5c0-1.9-1.6-3.5-3.6-3.5"/>
    <path class="st4" d="M80.6,13.9h0l-2.3,6.1c.6.5,1.4.9,2.4.9s1.7-.3,2.4-.9l-2.3-6.1h0"/>
    <path class="st2" d="M80.7,13.9l2.3,6.1c.7-.6,1.2-1.6,1.2-2.6,0-1.9-1.5-3.4-3.5-3.5"/>
    <path class="st3" d="M80.5,13.9c-1.9,0-3.5,1.6-3.5,3.5s.5,2,1.2,2.6l2.3-6.1h0Z"/>
  </g>
</svg>